<?xml version="1.0" encoding="UTF-8"?>
<svg width="180px" height="180px" viewBox="0 0 180 180" version="1.1" xmlns="http://www.w3.org/2000/svg" xmlns:xlink="http://www.w3.org/1999/xlink">
    <!-- Generator: Sketch 55 (78076) - https://sketchapp.com -->
    <title>touchbar</title>
    <desc>Created with Sketch.</desc>
    <g id="touchbar" stroke="none" stroke-width="1" fill="none" fill-rule="evenodd">
        <g id="icon-/-small" fill="#DEBC8E" fill-rule="nonzero">
            <path d="M77.765808,122 C72.7002342,116.45666 69.8056206,109.226216 69.8056206,100.790698 C69.8056206,72.1099366 105.023419,68.7357294 105.023419,52.1057082 C105.023419,44.6342495 99.4754098,38.3678647 86.2084309,38.3678647 C74.147541,38.3678647 64.0163934,44.3932347 56.5386417,53.3107822 L37,31.3784355 C49.7845433,16.435518 69.0819672,8 89.8266979,8 C120.943794,8 140,23.6659619 140,46.0803383 C140,81.2684989 99.7166276,83.9196617 99.7166276,104.164905 C99.7166276,108.021142 101.64637,112.118393 104.058548,114.287526 L77.765808,122 Z M89.5,174 C78.9074074,174 70,165.092593 70,154.5 C70,143.907407 78.9074074,135 89.5,135 C100.092593,135 109,143.907407 109,154.5 C109,165.092593 100.092593,174 89.5,174 Z" id="?"></path>
        </g>
    </g>
</svg>